<svg width="196" height="58" viewBox="0 0 196 58" fill="none" xmlns="http://www.w3.org/2000/svg">
<g clip-path="url(#clip0_531_3052)">
<path d="M188.667 58H6.85275C3.07497 58 0 54.9144 0 51.1371V6.8527C0 3.074 3.07497 0 6.85275 0H188.667C192.443 0 195.627 3.074 195.627 6.8527V51.1371C195.627 54.9144 192.443 58 188.667 58Z" fill="#A6A6A6"/>
<path d="M194.224 51.1386C194.224 54.2068 191.741 56.6921 188.668 56.6921H6.85261C3.78199 56.6921 1.28955 54.2068 1.28955 51.1386V6.85128C1.28955 3.78453 3.78199 1.29053 6.85261 1.29053H188.667C191.741 1.29053 194.223 3.78453 194.223 6.85128L194.224 51.1386Z" fill="black"/>
<path d="M43.6582 28.6866C43.6162 24.0133 47.4823 21.7397 47.6591 21.6338C45.4695 18.4395 42.0758 18.003 40.8832 17.9682C38.0328 17.6681 35.268 19.6749 33.816 19.6749C32.335 19.6749 30.099 17.9972 27.6892 18.0465C24.5882 18.0944 21.6871 19.8909 20.096 22.6807C16.8123 28.3691 19.2613 36.7283 22.4073 41.3263C23.981 43.5781 25.8199 46.0924 28.2268 46.004C30.5816 45.9068 31.4612 44.5018 34.3029 44.5018C37.1184 44.5018 37.9444 46.004 40.3992 45.9474C42.9264 45.9068 44.5175 43.6854 46.0361 41.4133C47.8547 38.8323 48.5851 36.2904 48.6141 36.1599C48.5547 36.1396 43.706 34.288 43.6582 28.6866Z" fill="white"/>
<path d="M39.0212 14.9437C40.2877 13.3588 41.1543 11.2027 40.9137 9.01465C39.0806 9.09585 36.7882 10.2834 35.4681 11.8334C34.3001 13.1993 33.2568 15.4381 33.5263 17.5435C35.5854 17.6972 37.6997 16.5039 39.0212 14.9437Z" fill="white"/>
<path d="M77.7366 45.6809H74.4457L72.643 40.0128H66.3772L64.66 45.6809H61.4561L67.664 26.3843H71.4982L77.7366 45.6809ZM72.0996 37.6348L70.4694 32.5961C70.297 32.0813 69.9738 30.8691 69.4971 28.9609H69.4391C69.2493 29.7816 68.9435 30.9938 68.5233 32.5961L66.922 37.6348H72.0996Z" fill="white"/>
<path d="M93.7011 38.5526C93.7011 40.919 93.062 42.7895 91.784 44.1627C90.6392 45.385 89.2176 45.9955 87.5207 45.9955C85.6891 45.9955 84.3733 45.3372 83.572 44.0206H83.514V51.3503H80.4245V36.3472C80.4245 34.8595 80.3854 33.3326 80.3101 31.7666H83.0271L83.1995 33.9721H83.2575C84.2878 32.3104 85.8514 31.481 87.9497 31.481C89.59 31.481 90.9594 32.1291 92.0549 33.4269C93.1533 34.7261 93.7011 36.4342 93.7011 38.5526ZM90.5537 38.6657C90.5537 37.3114 90.2494 36.1949 89.6379 35.3162C88.9698 34.3998 88.0728 33.9416 86.9483 33.9416C86.1861 33.9416 85.4934 34.1968 84.8747 34.7C84.2545 35.2075 83.8487 35.8701 83.6589 36.6908C83.5633 37.0736 83.5154 37.3868 83.5154 37.6333V39.9533C83.5154 40.9654 83.8256 41.8195 84.4458 42.5169C85.066 43.2144 85.8717 43.5624 86.8628 43.5624C88.0265 43.5624 88.9321 43.1129 89.5799 42.2168C90.2291 41.3192 90.5537 40.136 90.5537 38.6657Z" fill="white"/>
<path d="M109.695 38.5526C109.695 40.919 109.056 42.7895 107.776 44.1627C106.633 45.385 105.211 45.9955 103.514 45.9955C101.683 45.9955 100.367 45.3372 99.5671 44.0206H99.5091V51.3503H96.4197V36.3472C96.4197 34.8595 96.3805 33.3326 96.3052 31.7666H99.0222L99.1947 33.9721H99.2526C100.281 32.3104 101.845 31.481 103.945 31.481C105.584 31.481 106.953 32.1291 108.052 33.4269C109.146 34.7261 109.695 36.4342 109.695 38.5526ZM106.547 38.6657C106.547 37.3114 106.242 36.1949 105.63 35.3162C104.962 34.3998 104.068 33.9416 102.942 33.9416C102.178 33.9416 101.487 34.1968 100.867 34.7C100.247 35.2075 99.8424 35.8701 99.6526 36.6908C99.5584 37.0736 99.5091 37.3868 99.5091 37.6333V39.9533C99.5091 40.9654 99.8192 41.8195 100.437 42.5169C101.057 43.2129 101.862 43.5624 102.857 43.5624C104.02 43.5624 104.926 43.1129 105.574 42.2168C106.223 41.3192 106.547 40.136 106.547 38.6657Z" fill="white"/>
<path d="M127.576 40.2693C127.576 41.9107 127.007 43.2461 125.864 44.2771C124.607 45.4037 122.858 45.9663 120.611 45.9663C118.536 45.9663 116.872 45.5661 115.613 44.7643L116.329 42.1876C117.685 43.0083 119.173 43.4201 120.795 43.4201C121.958 43.4201 122.864 43.1562 123.515 42.6313C124.162 42.1064 124.486 41.4017 124.486 40.523C124.486 39.74 124.219 39.0803 123.684 38.5452C123.152 38.0102 122.264 37.5128 121.024 37.0532C117.647 35.7931 115.961 33.9473 115.961 31.52C115.961 29.9337 116.552 28.633 117.736 27.6209C118.915 26.6074 120.489 26.1013 122.457 26.1013C124.212 26.1013 125.669 26.4073 126.833 27.0177L126.061 29.5378C124.974 28.9462 123.745 28.6504 122.37 28.6504C121.283 28.6504 120.434 28.9187 119.825 29.4523C119.311 29.9293 119.053 30.5108 119.053 31.1995C119.053 31.9622 119.347 32.593 119.938 33.0889C120.453 33.5471 121.387 34.043 122.744 34.578C124.403 35.2465 125.622 36.028 126.406 36.9241C127.187 37.8173 127.576 38.9353 127.576 40.2693Z" fill="white"/>
<path d="M137.791 34.0868H134.386V40.8423C134.386 42.5606 134.986 43.419 136.189 43.419C136.741 43.419 137.199 43.3711 137.561 43.2754L137.646 45.623C137.038 45.8506 136.236 45.9652 135.244 45.9652C134.024 45.9652 133.07 45.5925 132.382 44.8487C131.696 44.1034 131.351 42.8535 131.351 41.0975V34.0839H129.323V31.7639H131.351V29.2162L134.386 28.2998V31.7639H137.791V34.0868Z" fill="white"/>
<path d="M153.156 38.6089C153.156 40.7477 152.545 42.5036 151.324 43.8768C150.045 45.2905 148.347 45.9952 146.229 45.9952C144.189 45.9952 142.565 45.3181 141.353 43.9638C140.142 42.6095 139.536 40.8999 139.536 38.8395C139.536 36.6833 140.159 34.9172 141.41 33.5441C142.657 32.1695 144.341 31.4822 146.458 31.4822C148.499 31.4822 150.141 32.1593 151.38 33.5151C152.565 34.8302 153.156 36.5282 153.156 38.6089ZM149.951 38.709C149.951 37.4257 149.677 36.3252 149.122 35.4073C148.474 34.2966 147.548 33.7427 146.348 33.7427C145.106 33.7427 144.163 34.2981 143.515 35.4073C142.96 36.3266 142.686 37.4446 142.686 38.767C142.686 40.0502 142.96 41.1508 143.515 42.0672C144.183 43.1779 145.117 43.7318 146.321 43.7318C147.5 43.7318 148.426 43.1663 149.094 42.0382C149.664 41.1029 149.951 39.9908 149.951 38.709Z" fill="white"/>
<path d="M163.198 34.4854C162.892 34.4288 162.566 34.3998 162.224 34.3998C161.137 34.3998 160.297 34.8102 159.706 35.6323C159.191 36.3573 158.933 37.2737 158.933 38.3801V45.6808H155.845L155.874 36.1485C155.874 34.5448 155.835 33.0847 155.758 31.7681H158.449L158.562 34.4303H158.648C158.974 33.5153 159.488 32.7787 160.193 32.2263C160.881 31.7289 161.624 31.481 162.426 31.481C162.711 31.481 162.969 31.5013 163.198 31.5375V34.4854Z" fill="white"/>
<path d="M177.015 38.0655C177.015 38.6194 176.979 39.0863 176.902 39.4677H167.634C167.67 40.8423 168.118 41.8935 168.978 42.6185C169.759 43.2667 170.769 43.5915 172.01 43.5915C173.382 43.5915 174.634 43.3725 175.76 42.9332L176.244 45.0792C174.928 45.6534 173.375 45.939 171.582 45.939C169.426 45.939 167.734 45.3039 166.502 44.0352C165.273 42.7664 164.657 41.0627 164.657 38.9254C164.657 36.8272 165.23 35.08 166.376 33.6865C167.576 32.1988 169.197 31.455 171.238 31.455C173.242 31.455 174.759 32.1988 175.789 33.6865C176.605 34.8683 177.015 36.3299 177.015 38.0655ZM174.069 37.2637C174.089 36.3473 173.888 35.5556 173.469 34.8871C172.934 34.0273 172.113 33.5981 171.007 33.5981C169.997 33.5981 169.175 34.0171 168.548 34.8581C168.034 35.5266 167.728 36.3284 167.634 37.2622H174.069V37.2637Z" fill="white"/>
<path d="M64.8011 19.8644V10.7131H66.4588V18.4747H70.4893V19.8644H64.8011ZM73.8317 20.0029C73.3968 20.0029 73.0051 19.9254 72.6565 19.7705C72.311 19.6127 72.0369 19.3803 71.8343 19.0735C71.6347 18.7666 71.535 18.3883 71.535 17.9385C71.535 17.5512 71.6064 17.231 71.7494 16.9778C71.8924 16.7246 72.0875 16.522 72.3348 16.3701C72.5821 16.2182 72.8606 16.1035 73.1704 16.026C73.4832 15.9456 73.8064 15.8875 74.14 15.8517C74.5422 15.81 74.8684 15.7728 75.1186 15.74C75.3689 15.7043 75.5506 15.6507 75.6638 15.5792C75.7799 15.5047 75.838 15.39 75.838 15.2351V15.2083C75.838 14.8717 75.7382 14.611 75.5387 14.4263C75.3391 14.2416 75.0516 14.1493 74.6762 14.1493C74.2801 14.1493 73.9658 14.2357 73.7334 14.4084C73.504 14.5812 73.3491 14.7853 73.2687 15.0206L71.7584 14.8061C71.8775 14.3891 72.0741 14.0405 72.3482 13.7605C72.6223 13.4775 72.9574 13.266 73.3536 13.126C73.7498 12.983 74.1877 12.9115 74.6673 12.9115C74.998 12.9115 75.3271 12.9503 75.6548 13.0277C75.9825 13.1052 76.2819 13.2333 76.553 13.412C76.8241 13.5877 77.0415 13.8276 77.2054 14.1314C77.3722 14.4353 77.4556 14.8151 77.4556 15.2709V19.8644H75.9006V18.9215H75.847C75.7487 19.1122 75.6101 19.2909 75.4314 19.4578C75.2557 19.6216 75.0337 19.7542 74.7656 19.8554C74.5005 19.9537 74.1892 20.0029 73.8317 20.0029ZM74.2518 18.8143C74.5765 18.8143 74.858 18.7503 75.0963 18.6222C75.3346 18.4911 75.5178 18.3183 75.6459 18.1038C75.777 17.8893 75.8425 17.6555 75.8425 17.4023V16.5935C75.7919 16.6352 75.7055 16.6739 75.5833 16.7097C75.4642 16.7454 75.3301 16.7767 75.1812 16.8035C75.0322 16.8303 74.8848 16.8542 74.7388 16.875C74.5928 16.8959 74.4662 16.9137 74.359 16.9286C74.1177 16.9614 73.9017 17.015 73.7111 17.0895C73.5204 17.164 73.37 17.2682 73.2598 17.4023C73.1495 17.5334 73.0944 17.7032 73.0944 17.9117C73.0944 18.2096 73.2032 18.4345 73.4206 18.5864C73.6381 18.7383 73.9151 18.8143 74.2518 18.8143ZM81.6291 19.985C81.0899 19.985 80.6073 19.8465 80.1813 19.5695C79.7553 19.2924 79.4187 18.8903 79.1715 18.363C78.9242 17.8357 78.8006 17.1952 78.8006 16.4416C78.8006 15.679 78.9257 15.0355 79.1759 14.5112C79.4292 13.9839 79.7702 13.5863 80.1992 13.3182C80.6282 13.0471 81.1063 12.9115 81.6336 12.9115C82.0357 12.9115 82.3664 12.98 82.6256 13.1171C82.8847 13.2511 83.0903 13.4135 83.2422 13.6041C83.3941 13.7918 83.5118 13.9691 83.5952 14.1359H83.6622V10.7131H85.2843V19.8644H83.6935V18.783H83.5952C83.5118 18.9498 83.3911 19.1271 83.2333 19.3148C83.0754 19.4995 82.8669 19.6573 82.6077 19.7884C82.3485 19.9195 82.0223 19.985 81.6291 19.985ZM82.0804 18.6579C82.423 18.6579 82.7149 18.5656 82.9562 18.3809C83.1975 18.1932 83.3807 17.9325 83.5058 17.5989C83.6309 17.2653 83.6935 16.8765 83.6935 16.4326C83.6935 15.9888 83.6309 15.603 83.5058 15.2753C83.3837 14.9476 83.202 14.6929 82.9607 14.5112C82.7224 14.3295 82.4289 14.2386 82.0804 14.2386C81.72 14.2386 81.4191 14.3325 81.1778 14.5202C80.9365 14.7078 80.7548 14.967 80.6326 15.2977C80.5105 15.6283 80.4494 16.0066 80.4494 16.4326C80.4494 16.8616 80.5105 17.2444 80.6326 17.581C80.7578 17.9147 80.941 18.1783 81.1823 18.3719C81.4265 18.5626 81.7259 18.6579 82.0804 18.6579ZM90.0465 19.9984C89.3583 19.9984 88.764 19.8554 88.2636 19.5695C87.7661 19.2805 87.3833 18.8724 87.1152 18.3451C86.8471 17.8149 86.713 17.1908 86.713 16.4729C86.713 15.7668 86.8471 15.1472 87.1152 14.614C87.3863 14.0778 87.7646 13.6607 88.2502 13.3628C88.7357 13.062 89.3062 12.9115 89.9616 12.9115C90.3846 12.9115 90.7838 12.98 91.1591 13.1171C91.5374 13.2511 91.8711 13.4597 92.16 13.7427C92.452 14.0257 92.6813 14.3861 92.8482 14.824C93.015 15.2589 93.0984 15.7773 93.0984 16.379V16.875H87.4727V15.7847H91.5479C91.5449 15.4749 91.4779 15.1994 91.3468 14.9581C91.2157 14.7138 91.0325 14.5216 90.7972 14.3816C90.5648 14.2416 90.2937 14.1716 89.9839 14.1716C89.6533 14.1716 89.3628 14.2521 89.1126 14.4129C88.8623 14.5708 88.6672 14.7793 88.5272 15.0385C88.3902 15.2947 88.3202 15.5762 88.3172 15.883V16.8348C88.3172 17.234 88.3902 17.5766 88.5361 17.8625C88.6821 18.1455 88.8862 18.363 89.1483 18.5149C89.4105 18.6639 89.7173 18.7383 90.0688 18.7383C90.3042 18.7383 90.5171 18.7056 90.7078 18.64C90.8984 18.5715 91.0638 18.4717 91.2038 18.3407C91.3438 18.2096 91.4496 18.0472 91.521 17.8536L93.0314 18.0234C92.936 18.4226 92.7543 18.7711 92.4862 19.069C92.2211 19.3639 91.8815 19.5933 91.4674 19.7571C91.0534 19.918 90.5797 19.9984 90.0465 19.9984ZM96.0844 15.8428V19.8644H94.4668V13.0009H96.0129V14.1672H96.0934C96.2512 13.7829 96.503 13.4775 96.8485 13.2511C97.1971 13.0247 97.6275 12.9115 98.1399 12.9115C98.6135 12.9115 99.0261 13.0128 99.3776 13.2154C99.7321 13.4179 100.006 13.7114 100.2 14.0957C100.396 14.4799 100.493 14.9461 100.49 15.4943V19.8644H98.8727V15.7445C98.8727 15.2857 98.7535 14.9268 98.5152 14.6676C98.2799 14.4084 97.9537 14.2789 97.5366 14.2789C97.2537 14.2789 97.0019 14.3414 96.7815 14.4665C96.564 14.5887 96.3927 14.7659 96.2676 14.9983C96.1455 15.2306 96.0844 15.5121 96.0844 15.8428ZM105.256 19.8644V13.0009H106.873V19.8644H105.256ZM106.069 12.0268C105.813 12.0268 105.592 11.9419 105.408 11.7721C105.223 11.5993 105.131 11.3923 105.131 11.151C105.131 10.9067 105.223 10.6997 105.408 10.5299C105.592 10.3571 105.813 10.2707 106.069 10.2707C106.328 10.2707 106.549 10.3571 106.73 10.5299C106.915 10.6997 107.007 10.9067 107.007 11.151C107.007 11.3923 106.915 11.5993 106.73 11.7721C106.549 11.9419 106.328 12.0268 106.069 12.0268ZM108.537 19.8644V13.0009H110.083V14.1672H110.163C110.306 13.7739 110.543 13.4671 110.874 13.2467C111.204 13.0232 111.599 12.9115 112.058 12.9115C112.523 12.9115 112.914 13.0247 113.233 13.2511C113.555 13.4745 113.781 13.7799 113.912 14.1672H113.984C114.136 13.7858 114.392 13.482 114.752 13.2556C115.116 13.0262 115.546 12.9115 116.044 12.9115C116.675 12.9115 117.191 13.1111 117.59 13.5103C117.989 13.9095 118.189 14.4919 118.189 15.2574V19.8644H116.567V15.5077C116.567 15.0817 116.453 14.7704 116.227 14.5738C116.001 14.3742 115.723 14.2744 115.396 14.2744C115.006 14.2744 114.7 14.3965 114.48 14.6408C114.262 14.8821 114.154 15.1964 114.154 15.5836V19.8644H112.567V15.4407C112.567 15.0862 112.46 14.8032 112.246 14.5917C112.034 14.3801 111.757 14.2744 111.414 14.2744C111.182 14.2744 110.971 14.334 110.78 14.4531C110.589 14.5693 110.437 14.7346 110.324 14.9491C110.211 15.1606 110.154 15.4079 110.154 15.6909V19.8644H108.537Z" fill="white"/>
</g>
<defs>
<clipPath id="clip0_531_3052">
<rect width="195.627" height="58" fill="white"/>
</clipPath>
</defs>
</svg>
