<svg width="197" height="58" viewBox="0 0 197 58" fill="none" xmlns="http://www.w3.org/2000/svg">
<g clip-path="url(#clip0_531_3070)">
<path fill-rule="evenodd" clip-rule="evenodd" d="M189.006 58H7.87531C3.88057 58 0.627197 54.7312 0.627197 50.75V7.25C0.627197 3.25436 3.88057 0 7.87531 0H189.006C192.997 0 196.254 3.25436 196.254 7.25V50.75C196.254 54.7312 192.997 58 189.006 58Z" fill="black"/>
<path fill-rule="evenodd" clip-rule="evenodd" d="M189.006 1.16072C192.357 1.16072 195.099 3.89801 195.099 7.25V50.75C195.099 54.102 192.375 56.8393 189.006 56.8393H7.87531C4.52477 56.8393 1.78243 54.102 1.78243 50.75V7.25C1.78243 3.89801 4.50677 1.16072 7.87531 1.16072H189.006ZM189.006 0H7.87531C3.88057 0 0.627197 3.26883 0.627197 7.25V50.75C0.627197 54.7456 3.88057 58 7.87531 58H189.006C192.997 58 196.254 54.7456 196.254 50.75V7.25C196.254 3.26883 192.997 0 189.006 0Z" fill="#A6A6A6"/>
<path fill-rule="evenodd" clip-rule="evenodd" d="M98.9517 31.5457C95.5508 31.5457 92.7941 34.1383 92.7941 37.7145C92.7941 41.2581 95.5688 43.8833 98.9517 43.8833C102.353 43.8833 105.109 41.2726 105.109 37.7145C105.109 34.1383 102.353 31.5457 98.9517 31.5457ZM98.9517 41.4389C97.0911 41.4389 95.4896 39.8913 95.4896 37.7C95.4896 35.4762 97.0947 33.9611 98.9517 33.9611C100.812 33.9611 102.414 35.4762 102.414 37.7C102.417 39.9057 100.812 41.4389 98.9517 41.4389ZM85.5172 31.5457C82.1162 31.5457 79.3595 34.1383 79.3595 37.7145C79.3595 41.2581 82.1342 43.8833 85.5172 43.8833C88.9181 43.8833 91.6748 41.2726 91.6748 37.7145C91.6748 34.1383 88.9145 31.5457 85.5172 31.5457ZM85.5172 41.4389C83.6566 41.4389 82.0551 39.8913 82.0551 37.7C82.0551 35.4762 83.6602 33.9611 85.5172 33.9611C87.3778 33.9611 88.9793 35.4762 88.9793 37.7C88.9793 39.9057 87.3778 41.4389 85.5172 41.4389ZM69.531 33.4296V36.0403H75.7678C75.5771 37.5048 75.0949 38.5859 74.3571 39.3272C73.443 40.2456 72.0322 41.2437 69.5454 41.2437C65.7126 41.2437 62.7148 38.1339 62.7148 34.2829C62.7148 30.4319 65.7126 27.3222 69.5454 27.3222C71.6148 27.3222 73.1227 28.143 74.2419 29.1917L76.0845 27.3403C74.5298 25.8433 72.4605 24.697 69.5598 24.697C64.3019 24.697 59.8896 29 59.8896 34.2685C59.8896 39.5514 64.2983 43.8399 69.5598 43.8399C72.3993 43.8399 74.5298 42.907 76.2141 41.1496C77.9308 39.4248 78.4742 36.9913 78.4742 35.0278C78.4742 34.4167 78.4274 33.8671 78.3302 33.4006H69.5274C69.531 33.397 69.531 33.4296 69.531 33.4296ZM134.919 35.4617C134.404 34.0768 132.849 31.5312 129.661 31.5312C126.501 31.5312 123.874 34.0298 123.874 37.7C123.874 41.1641 126.472 43.8688 129.967 43.8688C132.774 43.8688 134.408 42.144 135.081 41.1316L132.997 39.7286C132.306 40.7591 131.345 41.4353 129.981 41.4353C128.603 41.4353 127.638 40.8061 126.998 39.5658L135.207 36.1488C135.207 36.1524 134.919 35.4617 134.919 35.4617ZM126.548 37.5228C126.483 35.1399 128.39 33.9286 129.754 33.9286C130.83 33.9286 131.727 34.4601 132.033 35.2339L126.548 37.5228ZM119.879 43.5H122.575V25.3768H119.879V43.5ZM115.453 32.9161H115.355C114.747 32.1893 113.592 31.5312 112.116 31.5312C109.054 31.5312 106.232 34.2395 106.232 37.7181C106.232 41.1822 109.039 43.858 112.116 43.858C113.574 43.858 114.747 43.1963 115.355 42.455H115.453V43.3409C115.453 45.6949 114.2 46.9641 112.181 46.9641C110.529 46.9641 109.504 45.7708 109.086 44.7728L106.743 45.7564C107.416 47.3836 109.212 49.3976 112.178 49.3976C115.337 49.3976 118.015 47.5282 118.015 42.9685V31.9H115.467V32.9161C115.471 32.9161 115.453 32.9161 115.453 32.9161ZM112.358 41.4389C110.497 41.4389 108.942 39.8768 108.942 37.7181C108.942 35.5413 110.497 33.9647 112.358 33.9647C114.2 33.9647 115.629 35.5594 115.629 37.7181C115.647 39.8768 114.204 41.4389 112.358 41.4389ZM147.54 25.3768H141.094V43.5H143.79V36.6369H147.544C150.527 36.6369 153.46 34.4637 153.46 31.0141C153.46 27.5645 150.538 25.3768 147.54 25.3768ZM147.619 34.1058H143.786V27.8863H147.619C149.638 27.8863 150.779 29.5605 150.779 30.996C150.779 32.4171 149.624 34.1058 147.619 34.1058ZM164.264 31.5131C162.306 31.5131 160.287 32.3846 159.452 34.2829L161.842 35.2809C162.357 34.2829 163.299 33.943 164.296 33.943C165.693 33.943 167.103 34.7819 167.136 36.2789V36.4706C166.654 36.1958 165.596 35.7763 164.329 35.7763C161.748 35.7763 159.132 37.1938 159.132 39.8515C159.132 42.2851 161.248 43.8471 163.605 43.8471C165.416 43.8471 166.412 43.0263 167.035 42.0753H167.132V43.4783H169.731V36.5357C169.731 33.303 167.341 31.5131 164.264 31.5131ZM163.926 41.4389C163.044 41.4389 161.81 41.005 161.81 39.8913C161.81 38.4883 163.35 37.9567 164.663 37.9567C165.851 37.9567 166.412 38.2135 167.118 38.5678C166.924 40.195 165.556 41.4245 163.926 41.4389ZM179.21 31.9L176.115 39.7611H176.018L172.811 31.9H169.911L174.722 42.8889L171.98 48.9963H174.787L182.19 31.9H179.21ZM154.946 43.5H157.642V25.3768H154.946V43.5Z" fill="white"/>
<path fill-rule="evenodd" clip-rule="evenodd" d="M15.685 10.9238C15.2675 11.3758 15.0264 12.0664 15.0264 12.9704V45.0332C15.0264 45.9371 15.2675 46.6278 15.6994 47.0617L15.8109 47.1593L33.6901 29.1952V28.7939L15.7965 10.8262L15.685 10.9238Z" fill="url(#paint0_linear_531_3070)"/>
<path fill-rule="evenodd" clip-rule="evenodd" d="M39.6389 35.2012L33.6755 29.2096V28.7901L39.6389 22.7985L39.7684 22.878L46.8222 26.9062C48.8412 28.0488 48.8412 29.9364 46.8222 31.0935L39.7684 35.1217L39.6389 35.2012Z" fill="url(#paint1_linear_531_3070)"/>
<path fill-rule="evenodd" clip-rule="evenodd" d="M39.7684 35.1218L33.6755 29L15.6848 47.0762C16.3434 47.7849 17.4483 47.8645 18.6827 47.1738L39.7684 35.1218Z" fill="url(#paint2_linear_531_3070)"/>
<path fill-rule="evenodd" clip-rule="evenodd" d="M39.7684 22.8782L18.6827 10.8443C17.4483 10.1355 16.3398 10.2332 15.6848 10.9419L33.6755 29L39.7684 22.8782Z" fill="url(#paint3_linear_531_3070)"/>
<path opacity="0.2" fill-rule="evenodd" clip-rule="evenodd" d="M39.6389 34.9916L18.6971 46.9459C17.5274 47.6221 16.4838 47.5751 15.8108 46.9604L15.6992 47.0725L15.8108 47.1701C16.4838 47.7812 17.5274 47.8319 18.6971 47.1557L39.7828 35.1218L39.6389 34.9916Z" fill="black"/>
<path opacity="0.12" fill-rule="evenodd" clip-rule="evenodd" d="M46.8222 30.8839L39.6208 34.9916L39.7504 35.1218L46.8042 31.0936C47.8155 30.5151 48.3121 29.7557 48.3121 29C48.2509 29.6943 47.7363 30.3524 46.8222 30.8839Z" fill="black"/>
<path opacity="0.25" fill-rule="evenodd" clip-rule="evenodd" d="M18.6828 11.0539L46.8223 27.116C47.7365 27.6331 48.2511 28.3093 48.3303 29C48.3303 28.2442 47.8336 27.4849 46.8223 26.9063L18.6828 10.8442C16.6639 9.6835 15.0264 10.6526 15.0264 12.9704V13.1801C15.0264 10.8587 16.6639 9.90769 18.6828 11.0539Z" fill="white"/>
<path d="M65.1064 10.7131H66.7507V17.1476C66.7478 17.7374 66.6226 18.2453 66.3754 18.6713C66.1281 19.0943 65.7826 19.4205 65.3387 19.6499C64.8978 19.8763 64.384 19.9895 63.7971 19.9895C63.2609 19.9895 62.7783 19.8942 62.3493 19.7035C61.9234 19.5099 61.5852 19.2239 61.335 18.8456C61.0848 18.4673 60.9597 17.9966 60.9597 17.4336H62.6085C62.6115 17.6808 62.6651 17.8938 62.7694 18.0725C62.8766 18.2513 63.0241 18.3883 63.2118 18.4836C63.3994 18.579 63.6154 18.6266 63.8597 18.6266C64.1248 18.6266 64.3497 18.5715 64.5344 18.4613C64.7191 18.3481 64.8591 18.1813 64.9544 17.9608C65.0527 17.7404 65.1034 17.4693 65.1064 17.1476V10.7131ZM71.5163 19.9984C70.8282 19.9984 70.2339 19.8554 69.7334 19.5695C69.2359 19.2805 68.8531 18.8724 68.585 18.3451C68.3169 17.8149 68.1829 17.1908 68.1829 16.4729C68.1829 15.7668 68.3169 15.1472 68.585 14.614C68.8561 14.0778 69.2344 13.6607 69.72 13.3628C70.2056 13.062 70.776 12.9115 71.4314 12.9115C71.8544 12.9115 72.2536 12.98 72.6289 13.1171C73.0073 13.2511 73.3409 13.4597 73.6299 13.7427C73.9218 14.0257 74.1512 14.3861 74.318 14.824C74.4848 15.2589 74.5682 15.7773 74.5682 16.379V16.875H68.9425V15.7847H73.0177C73.0147 15.4749 72.9477 15.1994 72.8166 14.9581C72.6855 14.7138 72.5023 14.5216 72.267 14.3816C72.0346 14.2416 71.7636 14.1716 71.4537 14.1716C71.1231 14.1716 70.8326 14.2521 70.5824 14.4129C70.3322 14.5708 70.137 14.7793 69.997 15.0385C69.86 15.2947 69.79 15.5762 69.787 15.883V16.8348C69.787 17.234 69.86 17.5766 70.006 17.8625C70.1519 18.1455 70.356 18.363 70.6181 18.5149C70.8803 18.6639 71.1871 18.7383 71.5386 18.7383C71.774 18.7383 71.987 18.7056 72.1776 18.64C72.3683 18.5715 72.5336 18.4717 72.6736 18.3407C72.8136 18.2096 72.9194 18.0472 72.9909 17.8536L74.5012 18.0234C74.4059 18.4226 74.2242 18.7711 73.9561 19.069C73.6909 19.3639 73.3513 19.5933 72.9373 19.7571C72.5232 19.918 72.0495 19.9984 71.5163 19.9984ZM79.3639 13.0009V14.2521H75.4183V13.0009H79.3639ZM76.3925 11.3565H78.01V17.8C78.01 18.0174 78.0428 18.1843 78.1083 18.3004C78.1768 18.4136 78.2662 18.4911 78.3764 18.5328C78.4867 18.5745 78.6088 18.5954 78.7428 18.5954C78.8441 18.5954 78.9365 18.5879 79.0199 18.573C79.1063 18.5581 79.1718 18.5447 79.2165 18.5328L79.4891 19.7974C79.4027 19.8271 79.279 19.8599 79.1182 19.8957C78.9603 19.9314 78.7667 19.9523 78.5373 19.9582C78.1322 19.9701 77.7672 19.9091 77.4425 19.775C77.1178 19.638 76.8601 19.4265 76.6695 19.1405C76.4818 18.8545 76.3895 18.497 76.3925 18.0681V11.3565ZM80.6274 19.8644V18.8366L84.1664 14.3995V14.3414H80.7436V13.0009H86.1459V14.1046L82.7767 18.4658V18.5239H86.2621V19.8644H80.6274ZM91.2097 13.0009V14.2521H87.2641V13.0009H91.2097ZM88.2382 11.3565H89.8558V17.8C89.8558 18.0174 89.8886 18.1843 89.9541 18.3004C90.0226 18.4136 90.112 18.4911 90.2222 18.5328C90.3324 18.5745 90.4546 18.5954 90.5886 18.5954C90.6899 18.5954 90.7822 18.5879 90.8656 18.573C90.952 18.5581 91.0176 18.5447 91.0623 18.5328L91.3348 19.7974C91.2484 19.8271 91.1248 19.8599 90.964 19.8957C90.8061 19.9314 90.6124 19.9523 90.3831 19.9582C89.9779 19.9701 89.613 19.9091 89.2883 19.775C88.9636 19.638 88.7059 19.4265 88.5153 19.1405C88.3276 18.8545 88.2352 18.497 88.2382 18.0681V11.3565ZM95.7552 19.8644V10.7131H97.3728V14.1359H97.4398C97.5232 13.9691 97.6409 13.7918 97.7928 13.6041C97.9447 13.4135 98.1503 13.2511 98.4094 13.1171C98.6686 12.98 98.9993 12.9115 99.4014 12.9115C99.9317 12.9115 100.41 13.0471 100.836 13.3182C101.265 13.5863 101.604 13.9839 101.855 14.5112C102.108 15.0355 102.234 15.679 102.234 16.4416C102.234 17.1952 102.111 17.8357 101.864 18.363C101.616 18.8903 101.28 19.2924 100.854 19.5695C100.428 19.8465 99.9451 19.985 99.4059 19.985C99.0127 19.985 98.6865 19.9195 98.4273 19.7884C98.1681 19.6573 97.9596 19.4995 97.8017 19.3148C97.6468 19.1271 97.5262 18.9498 97.4398 18.783H97.346V19.8644H95.7552ZM97.3415 16.4326C97.3415 16.8765 97.404 17.2653 97.5292 17.5989C97.6573 17.9325 97.8405 18.1932 98.0788 18.3809C98.3201 18.5656 98.612 18.6579 98.9546 18.6579C99.3121 18.6579 99.6114 18.5626 99.8527 18.3719C100.094 18.1783 100.276 17.9147 100.398 17.581C100.523 17.2444 100.586 16.8616 100.586 16.4326C100.586 16.0066 100.524 15.6283 100.402 15.2977C100.28 14.967 100.099 14.7078 99.8572 14.5202C99.6159 14.3325 99.315 14.2386 98.9546 14.2386C98.609 14.2386 98.3156 14.3295 98.0743 14.5112C97.833 14.6929 97.6498 14.9476 97.5247 15.2753C97.4026 15.603 97.3415 15.9888 97.3415 16.4326ZM106.648 19.9984C105.96 19.9984 105.366 19.8554 104.865 19.5695C104.368 19.2805 103.985 18.8724 103.717 18.3451C103.449 17.8149 103.315 17.1908 103.315 16.4729C103.315 15.7668 103.449 15.1472 103.717 14.614C103.988 14.0778 104.366 13.6607 104.852 13.3628C105.337 13.062 105.908 12.9115 106.563 12.9115C106.986 12.9115 107.385 12.98 107.761 13.1171C108.139 13.2511 108.473 13.4597 108.762 13.7427C109.054 14.0257 109.283 14.3861 109.45 14.824C109.617 15.2589 109.7 15.7773 109.7 16.379V16.875H104.074V15.7847H108.149C108.146 15.4749 108.079 15.1994 107.948 14.9581C107.817 14.7138 107.634 14.5216 107.399 14.3816C107.166 14.2416 106.895 14.1716 106.586 14.1716C106.255 14.1716 105.964 14.2521 105.714 14.4129C105.464 14.5708 105.269 14.7793 105.129 15.0385C104.992 15.2947 104.922 15.5762 104.919 15.883V16.8348C104.919 17.234 104.992 17.5766 105.138 17.8625C105.284 18.1455 105.488 18.363 105.75 18.5149C106.012 18.6639 106.319 18.7383 106.67 18.7383C106.906 18.7383 107.119 18.7056 107.309 18.64C107.5 18.5715 107.665 18.4717 107.805 18.3407C107.945 18.2096 108.051 18.0472 108.123 17.8536L109.633 18.0234C109.538 18.4226 109.356 18.7711 109.088 19.069C108.823 19.3639 108.483 19.5933 108.069 19.7571C107.655 19.918 107.181 19.9984 106.648 19.9984ZM111.068 19.8644V13.0009H112.686V19.8644H111.068ZM111.882 12.0268C111.626 12.0268 111.405 11.9419 111.22 11.7721C111.036 11.5993 110.943 11.3923 110.943 11.151C110.943 10.9067 111.036 10.6997 111.22 10.5299C111.405 10.3571 111.626 10.2707 111.882 10.2707C112.141 10.2707 112.361 10.3571 112.543 10.5299C112.728 10.6997 112.82 10.9067 112.82 11.151C112.82 11.3923 112.728 11.5993 112.543 11.7721C112.361 11.9419 112.141 12.0268 111.882 12.0268Z" fill="white"/>
</g>
<defs>
<linearGradient id="paint0_linear_531_3070" x1="32.0864" y1="12.6245" x2="3.4291" y2="20.2242" gradientUnits="userSpaceOnUse">
<stop stop-color="#00A0FF"/>
<stop offset="0.00657" stop-color="#00A1FF"/>
<stop offset="0.2601" stop-color="#00BEFF"/>
<stop offset="0.5122" stop-color="#00D2FF"/>
<stop offset="0.7604" stop-color="#00DFFF"/>
<stop offset="1" stop-color="#00E3FF"/>
</linearGradient>
<linearGradient id="paint1_linear_531_3070" x1="49.4551" y1="28.9999" x2="14.5355" y2="28.9999" gradientUnits="userSpaceOnUse">
<stop stop-color="#FFE000"/>
<stop offset="0.4087" stop-color="#FFBD00"/>
<stop offset="0.7754" stop-color="#FFA500"/>
<stop offset="1" stop-color="#FF9C00"/>
</linearGradient>
<linearGradient id="paint2_linear_531_3070" x1="36.4554" y1="32.3311" x2="13.3024" y2="71.1152" gradientUnits="userSpaceOnUse">
<stop stop-color="#FF3A44"/>
<stop offset="1" stop-color="#C31162"/>
</linearGradient>
<linearGradient id="paint3_linear_531_3070" x1="11.1546" y1="0.259237" x2="21.484" y2="17.5809" gradientUnits="userSpaceOnUse">
<stop stop-color="#32A071"/>
<stop offset="0.0685" stop-color="#2DA771"/>
<stop offset="0.4762" stop-color="#15CF74"/>
<stop offset="0.8009" stop-color="#06E775"/>
<stop offset="1" stop-color="#00F076"/>
</linearGradient>
<clipPath id="clip0_531_3070">
<rect width="195.627" height="58" fill="white" transform="translate(0.627197)"/>
</clipPath>
</defs>
</svg>
