<svg width="24" height="24" viewBox="0 0 24 24" fill="none" xmlns="http://www.w3.org/2000/svg">
<path d="M4 12C4 16.4183 7.58172 20 12 20C16.4183 20 20 16.4183 20 12C20 7.58172 16.4183 4 12 4" stroke="#ffffff" stroke-linecap="round"/>
<path d="M10 4L13 5.73205L13 2.26795L10 4Z" fill="#ffffff"/>
<path d="M10.3782 8.45455H9.07741L7.45703 9.48047V10.7077L8.95597 9.76811H8.99432V15H10.3782V8.45455Z" fill="#ffffff"/>
<path d="M14.5003 15.1438C16.1462 15.1438 17.1402 13.891 17.1434 11.7337C17.1466 9.59233 16.1398 8.36506 14.5003 8.36506C12.8575 8.36506 11.8604 9.58914 11.8572 11.7337C11.8508 13.8846 12.8511 15.1406 14.5003 15.1438ZM14.5003 13.9965C13.7492 13.9965 13.2634 13.2422 13.2666 11.7337C13.2698 10.2475 13.7524 9.49965 14.5003 9.49965C15.2449 9.49965 15.7307 10.2475 15.7307 11.7337C15.7339 13.2422 15.2481 13.9965 14.5003 13.9965Z" fill="#ffffff"/>
</svg>
