<svg width="24" height="24" viewBox="0 0 24 24" fill="none" xmlns="http://www.w3.org/2000/svg">
<path d="M20 12C20 16.4183 16.4183 20 12 20C7.58172 20 4 16.4183 4 12C4 7.58172 7.58172 4 12 4" stroke="#ffffff" stroke-linecap="round"/>
<path d="M8.94992 15.0895C10.4201 15.0895 11.4716 14.2809 11.4684 13.1623C11.4716 12.3473 10.9538 11.7656 9.99183 11.6442V11.593C10.7237 11.462 11.2287 10.9442 11.2255 10.2092C11.2287 9.17685 10.3242 8.36506 8.9691 8.36506C7.62677 8.36506 6.61683 9.15128 6.59765 10.2827H7.924C7.93998 9.78409 8.39701 9.46129 8.96271 9.46129C9.52201 9.46129 9.89595 9.80007 9.89275 10.2923C9.89595 10.8068 9.45809 11.1552 8.82847 11.1552H8.21803V12.1715H8.82847C9.56995 12.1715 10.0334 12.5423 10.0302 13.0696C10.0334 13.5906 9.58593 13.9485 8.95312 13.9485C8.34268 13.9485 7.88565 13.6289 7.86008 13.1495H6.46661C6.48899 14.2937 7.51171 15.0895 8.94992 15.0895Z" fill="#ffffff"/>
<path d="M15.0296 15.1438C16.6755 15.1438 17.6695 13.891 17.6727 11.7337C17.6759 9.59233 16.6691 8.36506 15.0296 8.36506C13.3868 8.36506 12.3896 9.58914 12.3864 11.7337C12.3801 13.8846 13.3804 15.1406 15.0296 15.1438ZM15.0296 13.9965C14.2785 13.9965 13.7927 13.2422 13.7959 11.7337C13.7991 10.2475 14.2817 9.49965 15.0296 9.49965C15.7742 9.49965 16.26 10.2475 16.26 11.7337C16.2632 13.2422 15.7774 13.9965 15.0296 13.9965Z" fill="#ffffff"/>
<path d="M14 4L11 5.73205L11 2.26795L14 4Z" fill="#ffffff"/>
</svg>
