<svg width="24" height="24" viewBox="0 0 24 24" fill="none" xmlns="http://www.w3.org/2000/svg">
<path d="M11.5 14.4783C9.26875 14.4783 7.43125 15.5217 7.43125 17.2174C7.43125 18.7826 7.69375 20.4783 8.0875 21.913C8.35 22.5652 8.875 23.6087 8.875 23.6087C9.00625 23.8696 9.26875 24 9.6625 24H13.4688C13.7312 24 14.125 23.8696 14.2563 23.6087C14.2563 23.6087 14.7812 22.5652 15.0437 21.7826C15.4375 20.3478 15.7 18.7826 15.7 17.087C15.5687 15.5217 13.7312 14.4783 11.5 14.4783Z" fill="#ffffff"/>
<path d="M11.5 12.7826C12.8048 12.7826 13.8625 11.7315 13.8625 10.4348C13.8625 9.13811 12.8048 8.08696 11.5 8.08696C10.1952 8.08696 9.1375 9.13811 9.1375 10.4348C9.1375 11.7315 10.1952 12.7826 11.5 12.7826Z" fill="#ffffff"/>
<path d="M11.5 0C5.725 0 1 4.69565 1 10.4348C1 14.2174 2.96875 17.4783 5.9875 19.3043C5.85625 18.6522 5.85625 18 5.85625 17.2174C3.8875 15.6522 2.575 13.1739 2.575 10.4348C2.575 5.6087 6.5125 1.56522 11.5 1.56522C16.4875 1.56522 20.425 5.47826 20.425 10.4348C20.425 13.1739 19.1125 15.6522 17.1438 17.2174C17.1438 17.8696 17.1437 18.6522 17.0125 19.3043C20.0312 17.4783 22 14.2174 22 10.4348C22 4.69565 17.275 0 11.5 0Z" fill="#ffffff"/>
<path d="M7.95625 13.6957C7.16875 12.913 6.64375 11.7391 6.64375 10.4348C6.64375 7.82609 8.875 5.6087 11.5 5.6087C14.125 5.6087 16.3563 7.82609 16.3563 10.4348C16.3563 11.7391 15.8312 12.913 15.0437 13.6957C15.5687 13.9565 15.9625 14.3478 16.225 14.7391C17.275 13.5652 17.9312 12.1304 17.9312 10.4348C17.9312 6.91304 15.0438 4.04348 11.5 4.04348C7.95625 4.04348 5.06875 6.91304 5.06875 10.4348C5.06875 12.1304 5.725 13.5652 6.775 14.7391C7.0375 14.3478 7.43125 13.9565 7.95625 13.6957Z" fill="#ffffff"/>
</svg>
