<svg width="24" height="24" viewBox="0 0 24 24" fill="none" xmlns="http://www.w3.org/2000/svg">
<path d="M7.40072 15.1425H4.76146V15.9424H7.40072V15.1425Z" fill="#ffffff"/>
<path d="M7.40072 14.1028H4.76146V14.903H7.40072V14.1028Z" fill="#ffffff"/>
<path d="M7.40072 13.0631H4.76146V13.8633H7.40072V13.0631Z" fill="#ffffff"/>
<path d="M7.40072 12.0233H4.76146V12.823H7.40072V12.0233Z" fill="#ffffff"/>
<path d="M7.40072 10.9836H4.76146V11.7832H7.40072V10.9836Z" fill="#ffffff"/>
<path d="M10.3603 15.1425H7.72074V15.9424H10.3603V15.1425Z" fill="#ffffff"/>
<path d="M10.3603 14.1028H7.72074V14.903H10.3603V14.1028Z" fill="#ffffff"/>
<path d="M10.3603 13.0631H7.72074V13.8633H10.3603V13.0631Z" fill="#ffffff"/>
<path d="M13.3199 15.1425H10.6803V15.9424H13.3199V15.1425Z" fill="#ffffff"/>
<path d="M13.3199 14.1028H10.6803V14.903H13.3199V14.1028Z" fill="#ffffff"/>
<path d="M13.3199 13.0631H10.6803V13.8633H13.3199V13.0631Z" fill="#ffffff"/>
<path d="M13.3199 12.0233H10.6803V12.823H13.3199V12.0233Z" fill="#ffffff"/>
<path d="M13.3199 10.9836H10.6803V11.7832H13.3199V10.9836Z" fill="#ffffff"/>
<path d="M13.3199 9.94361H10.6803V10.7435H13.3199V9.94361Z" fill="#ffffff"/>
<path d="M13.3199 8.90392H10.6803V9.70392H13.3199V8.90392Z" fill="#ffffff"/>
<path d="M16.2793 15.1425H13.6396V15.9424H16.2793V15.1425Z" fill="#ffffff"/>
<path d="M16.2793 14.1028H13.6396V14.903H16.2793V14.1028Z" fill="#ffffff"/>
<path d="M16.2793 13.0631H13.6396V13.8633H16.2793V13.0631Z" fill="#ffffff"/>
<path d="M16.2793 12.0233H13.6396V12.823H16.2793V12.0233Z" fill="#ffffff"/>
<path d="M16.2793 10.9836H13.6396V11.7832H16.2793V10.9836Z" fill="#ffffff"/>
<path d="M19.2387 15.1425H16.5992V15.9424H19.2387V15.1425Z" fill="#ffffff"/>
<path d="M19.2387 14.1028H16.5992V14.903H19.2387V14.1028Z" fill="#ffffff"/>
<path d="M19.2387 13.0628H16.5992V13.8627H19.2387V13.0628Z" fill="#ffffff"/>
<path d="M19.2387 12.0233H16.5992V12.8231H19.2387V12.0233Z" fill="#ffffff"/>
<path d="M19.2387 10.9833H16.5992V11.7833H19.2387V10.9833Z" fill="#ffffff"/>
<path d="M19.2387 9.94375H16.5992V10.7433H19.2387V9.94375Z" fill="#ffffff"/>
<path d="M19.2387 8.90378H16.5992V9.70333H19.2387V8.90378Z" fill="#ffffff"/>
<path d="M19.2387 7.86378H16.5992V8.66363H19.2387V7.86378Z" fill="#ffffff"/>
<path fill-rule="evenodd" clip-rule="evenodd" d="M12 22.9659C18.0563 22.9659 22.9659 18.0563 22.9659 12C22.9659 5.9437 18.0563 1.03409 12 1.03409C5.9437 1.03409 1.03409 5.9437 1.03409 12C1.03409 18.0563 5.9437 22.9659 12 22.9659ZM24 12C24 18.6274 18.6274 24 12 24C5.37258 24 0 18.6274 0 12C0 5.37258 5.37258 0 12 0C18.6274 0 24 5.37258 24 12Z" fill="#ffffff"/>
</svg>
