<svg width="24" height="24" viewBox="0 0 24 24" fill="none" xmlns="http://www.w3.org/2000/svg">
<path fill-rule="evenodd" clip-rule="evenodd" d="M2.13775 6.26912L7.86863 12L2.13775 17.7309C2.04883 17.5045 2 17.2579 2 17V7C2 6.74206 2.04883 6.49552 2.13775 6.26912ZM3.26912 5.13775C3.49552 5.04883 3.74206 5 4 5H20C20.2579 5 20.5045 5.04883 20.7309 5.13775L14.4343 11.4343L12.8485 13.0201C12.3799 13.4887 11.6201 13.4887 11.1515 13.0201L9.56569 11.4343L3.26912 5.13775ZM21.8622 6.26912L16.1314 12L21.8622 17.7309C21.9512 17.5045 22 17.2579 22 17V7C22 6.74206 21.9512 6.49552 21.8622 6.26912ZM20.7309 18.8622L15 13.1314L13.9799 14.1515C12.8864 15.2449 11.1136 15.2449 10.0201 14.1515L9 13.1314L3.26912 18.8622C3.49552 18.9512 3.74206 19 4 19H20C20.2579 19 20.5045 18.9512 20.7309 18.8622Z" fill="#ffffff"/>
</svg>
