<svg width="24" height="24" viewBox="0 0 24 24" fill="none" xmlns="http://www.w3.org/2000/svg">
<path d="M4.5 18.3V17.7C4.5 15.049 6.64903 12.9 9.3 12.9H15.9C18.551 12.9 20.7 15.049 20.7 17.7V21.3" stroke="#ffffff" stroke-width="1.44" stroke-miterlimit="10" stroke-linecap="round" stroke-linejoin="round"/>
<path d="M4.49999 22.8C5.16273 22.8 5.69999 22.2627 5.69999 21.6C5.69999 20.9373 5.16273 20.4 4.49999 20.4C3.83725 20.4 3.29999 20.9373 3.29999 21.6C3.29999 22.2627 3.83725 22.8 4.49999 22.8Z" fill="#ffffff"/>
<path d="M12.9 10.2C15.3853 10.2 17.4 8.1853 17.4 5.70001C17.4 3.21473 15.3853 1.20001 12.9 1.20001C10.4147 1.20001 8.40001 3.21473 8.40001 5.70001C8.40001 8.1853 10.4147 10.2 12.9 10.2Z" stroke="#ffffff" stroke-width="1.44" stroke-miterlimit="10" stroke-linecap="round" stroke-linejoin="round"/>
</svg>
