<svg width="24" height="24" viewBox="0 0 24 24" fill="none" xmlns="http://www.w3.org/2000/svg">
<path d="M11.1 12.9H7.50001C4.84904 12.9 2.70001 15.049 2.70001 17.7V18.9" stroke="#ffffff" stroke-width="1.44" stroke-miterlimit="10" stroke-linecap="round" stroke-linejoin="round"/>
<path d="M12.9 10.2C15.3853 10.2 17.4 8.1853 17.4 5.70001C17.4 3.21473 15.3853 1.20001 12.9 1.20001C10.4147 1.20001 8.39999 3.21473 8.39999 5.70001C8.39999 8.1853 10.4147 10.2 12.9 10.2Z" stroke="#ffffff" stroke-width="1.44" stroke-miterlimit="10" stroke-linecap="round" stroke-linejoin="round"/>
<path d="M12.6 16.595L15.3989 19.4193L15 23.2267L18 21.3012L21.3341 23.2267L20.7 19.4193L23.4 16.595L19.6568 16.0512L18 12.6L16.3227 16.0512L12.6 16.595Z" stroke="#ffffff" stroke-width="1.2" stroke-miterlimit="10" stroke-linecap="round" stroke-linejoin="round"/>
<path d="M2.99999 23.4C3.66273 23.4 4.19999 22.8627 4.19999 22.2C4.19999 21.5373 3.66273 21 2.99999 21C2.33725 21 1.79999 21.5373 1.79999 22.2C1.79999 22.8627 2.33725 23.4 2.99999 23.4Z" fill="#ffffff"/>
</svg>
