<svg width="24" height="24" viewBox="0 0 24 24" fill="none" xmlns="http://www.w3.org/2000/svg">
<path d="M5.70001 17.7V2.10001H19.5V21.3H9.30001" stroke="#ffffff" stroke-width="1.44" stroke-miterlimit="10" stroke-linecap="round" stroke-linejoin="round"/>
<path d="M6.51763 21C6.51763 21.2859 6.28588 21.5176 5.99999 21.5176C5.7141 21.5176 5.48234 21.2859 5.48234 21C5.48234 20.7141 5.7141 20.4823 5.99999 20.4823C6.28588 20.4823 6.51763 20.7141 6.51763 21Z" fill="#ffffff" stroke="#ffffff" stroke-width="1.36471"/>
<path d="M9.51763 6.59999C9.51763 6.88588 9.28588 7.11764 8.99999 7.11764C8.7141 7.11764 8.48234 6.88588 8.48234 6.59999C8.48234 6.31411 8.7141 6.08235 8.99999 6.08235C9.28588 6.08235 9.51763 6.31411 9.51763 6.59999Z" fill="#ffffff" stroke="#ffffff" stroke-width="1.36471"/>
<path d="M11.4 6.60001H16.8" stroke="#ffffff" stroke-width="1.44" stroke-miterlimit="10" stroke-linecap="round" stroke-linejoin="round"/>
<path d="M9.51763 10.2C9.51763 10.4859 9.28588 10.7176 8.99999 10.7176C8.7141 10.7176 8.48234 10.4859 8.48234 10.2C8.48234 9.91411 8.7141 9.68235 8.99999 9.68235C9.28588 9.68235 9.51763 9.91411 9.51763 10.2Z" fill="#ffffff" stroke="#ffffff" stroke-width="1.36471"/>
<path d="M11.4 10.2H16.8" stroke="#ffffff" stroke-width="1.44" stroke-miterlimit="10" stroke-linecap="round" stroke-linejoin="round"/>
<path d="M9.51763 13.8C9.51763 14.0859 9.28588 14.3177 8.99999 14.3177C8.7141 14.3177 8.48234 14.0859 8.48234 13.8C8.48234 13.5141 8.7141 13.2824 8.99999 13.2824C9.28588 13.2824 9.51763 13.5141 9.51763 13.8Z" fill="#ffffff" stroke="#ffffff" stroke-width="1.36471"/>
<path d="M11.4 13.8H16.8" stroke="#ffffff" stroke-width="1.44" stroke-miterlimit="10" stroke-linecap="round" stroke-linejoin="round"/>
</svg>
