<svg width="24" height="24" viewBox="0 0 24 24" fill="none" xmlns="http://www.w3.org/2000/svg">
<path d="M12.8864 14.7273L13 6.36364H11.4545L11.5682 14.7273H12.8864Z" fill="#ffffff"/>
<path d="M11.5057 17.7898C11.7064 17.9905 11.947 18.0909 12.2273 18.0909C12.4167 18.0909 12.5871 18.0455 12.7386 17.9545C12.8939 17.8598 13.017 17.7348 13.108 17.5795C13.2027 17.4242 13.25 17.2538 13.25 17.0682C13.25 16.7879 13.1496 16.5473 12.9489 16.3466C12.7481 16.1458 12.5076 16.0455 12.2273 16.0455C11.947 16.0455 11.7064 16.1458 11.5057 16.3466C11.3049 16.5473 11.2045 16.7879 11.2045 17.0682C11.2045 17.3485 11.3049 17.589 11.5057 17.7898Z" fill="#ffffff"/>
<path fill-rule="evenodd" clip-rule="evenodd" d="M23 12C23 18.0751 18.0751 23 12 23C5.92487 23 1 18.0751 1 12C1 5.92487 5.92487 1 12 1C18.0751 1 23 5.92487 23 12ZM21.8 12C21.8 17.4124 17.4124 21.8 12 21.8C6.58761 21.8 2.2 17.4124 2.2 12C2.2 6.58761 6.58761 2.2 12 2.2C17.4124 2.2 21.8 6.58761 21.8 12Z" fill="#ffffff"/>
</svg>
