<svg width="24" height="24" viewBox="0 0 24 24" fill="none" xmlns="http://www.w3.org/2000/svg">
<path fill-rule="evenodd" clip-rule="evenodd" d="M12 22.9659C18.0563 22.9659 22.9659 18.0563 22.9659 12C22.9659 5.9437 18.0563 1.03409 12 1.03409C5.9437 1.03409 1.03409 5.9437 1.03409 12C1.03409 18.0563 5.9437 22.9659 12 22.9659ZM24 12C24 18.6274 18.6274 24 12 24C5.37258 24 0 18.6274 0 12C0 5.37258 5.37258 0 12 0C18.6274 0 24 5.37258 24 12Z" fill="#ffffff"/>
<path d="M10.9774 9.02491V14.9753H13.0228V9.02491H10.9774Z" fill="#ffffff"/>
<path d="M4.84105 12.465C5.40589 12.465 5.86378 12.0071 5.86378 11.4423C5.86378 10.8774 5.40589 10.4196 4.84105 10.4196C4.27621 10.4196 3.81832 10.8774 3.81832 11.4423C3.81832 12.0071 4.27621 12.465 4.84105 12.465Z" fill="#ffffff"/>
<path d="M4.84105 13.5807C5.40589 13.5807 5.86378 13.1228 5.86378 12.558C5.86378 11.9932 5.40589 11.5353 4.84105 11.5353C4.27621 11.5353 3.81832 11.9932 3.81832 12.558C3.81832 13.1228 4.27621 13.5807 4.84105 13.5807Z" fill="#ffffff"/>
<path d="M5.86378 11.4423H3.81832V12.558H5.86378V11.4423Z" fill="#ffffff"/>
<path d="M19.1592 13.5807C19.7241 13.5807 20.182 13.1228 20.182 12.558C20.182 11.9932 19.7241 11.5353 19.1592 11.5353C18.5944 11.5353 18.1365 11.9932 18.1365 12.558C18.1365 13.1228 18.5944 13.5807 19.1592 13.5807Z" fill="#ffffff"/>
<path d="M19.1592 12.465C19.7241 12.465 20.182 12.0071 20.182 11.4423C20.182 10.8774 19.7241 10.4196 19.1592 10.4196C18.5944 10.4196 18.1365 10.8774 18.1365 11.4423C18.1365 12.0071 18.5944 12.465 19.1592 12.465Z" fill="#ffffff"/>
<path d="M18.1365 12.558H20.182V11.4423H18.1365V12.558Z" fill="#ffffff"/>
<path d="M8.37409 15.8121C8.93893 15.8121 9.39682 15.3542 9.39682 14.7894C9.39682 14.2245 8.93893 13.7667 8.37409 13.7667C7.80925 13.7667 7.35136 14.2245 7.35136 14.7894C7.35136 15.3542 7.80925 15.8121 8.37409 15.8121Z" fill="#ffffff"/>
<path d="M8.37409 16.9278C8.93893 16.9278 9.39682 16.4699 9.39682 15.9051C9.39682 15.3403 8.93893 14.8824 8.37409 14.8824C7.80925 14.8824 7.35136 15.3403 7.35136 15.9051C7.35136 16.4699 7.80925 16.9278 8.37409 16.9278Z" fill="#ffffff"/>
<path d="M9.39682 14.7894H7.35136V15.9051H9.39682V14.7894Z" fill="#ffffff"/>
<path d="M8.37409 9.11791C8.93893 9.11791 9.39682 8.66002 9.39682 8.09518C9.39682 7.53034 8.93893 7.07245 8.37409 7.07245C7.80925 7.07245 7.35136 7.53034 7.35136 8.09518C7.35136 8.66002 7.80925 9.11791 8.37409 9.11791Z" fill="#ffffff"/>
<path d="M8.37409 12.744C8.93893 12.744 9.39682 12.2861 9.39682 11.7212C9.39682 11.1564 8.93893 10.6985 8.37409 10.6985C7.80925 10.6985 7.35136 11.1564 7.35136 11.7212C7.35136 12.2861 7.80925 12.744 8.37409 12.744Z" fill="#ffffff"/>
<path d="M9.39682 8.09518H7.35136V11.7444H9.39682V8.09518Z" fill="#ffffff"/>
<path d="M15.6262 10.2336C16.191 10.2336 16.6489 9.7757 16.6489 9.21086C16.6489 8.64603 16.191 8.18814 15.6262 8.18814C15.0614 8.18814 14.6035 8.64603 14.6035 9.21086C14.6035 9.7757 15.0614 10.2336 15.6262 10.2336Z" fill="#ffffff"/>
<path d="M15.6262 9.11791C16.191 9.11791 16.6489 8.66002 16.6489 8.09518C16.6489 7.53034 16.191 7.07245 15.6262 7.07245C15.0614 7.07245 14.6035 7.53034 14.6035 8.09518C14.6035 8.66002 15.0614 9.11791 15.6262 9.11791Z" fill="#ffffff"/>
<path d="M14.6035 9.21086H16.6489V8.09518H14.6035V9.21086Z" fill="#ffffff"/>
<path d="M12.0001 6.97946C12.5649 6.97946 13.0228 6.52157 13.0228 5.95673C13.0228 5.3919 12.5649 4.93401 12.0001 4.93401C11.4353 4.93401 10.9774 5.3919 10.9774 5.95673C10.9774 6.52157 11.4353 6.97946 12.0001 6.97946Z" fill="#ffffff"/>
<path d="M12.0001 5.86378C12.5649 5.86378 13.0228 5.40589 13.0228 4.84105C13.0228 4.27621 12.5649 3.81832 12.0001 3.81832C11.4353 3.81832 10.9774 4.27621 10.9774 4.84105C10.9774 5.40589 11.4353 5.86378 12.0001 5.86378Z" fill="#ffffff"/>
<path d="M10.9774 5.95673H13.0228V4.84105H10.9774V5.95673Z" fill="#ffffff"/>
<path d="M12.0001 20.182C12.5649 20.182 13.0228 19.7241 13.0228 19.1592C13.0228 18.5944 12.5649 18.1365 12.0001 18.1365C11.4353 18.1365 10.9774 18.5944 10.9774 19.1592C10.9774 19.7241 11.4353 20.182 12.0001 20.182Z" fill="#ffffff"/>
<path d="M12.0001 19.0662C12.5649 19.0662 13.0228 18.6083 13.0228 18.0435C13.0228 17.4787 12.5649 17.0208 12.0001 17.0208C11.4353 17.0208 10.9774 17.4787 10.9774 18.0435C10.9774 18.6083 11.4353 19.0662 12.0001 19.0662Z" fill="#ffffff"/>
<path d="M10.9774 19.1592H13.0228V18.0435H10.9774V19.1592Z" fill="#ffffff"/>
<path d="M15.6262 16.9278C16.191 16.9278 16.6489 16.4699 16.6489 15.9051C16.6489 15.3403 16.191 14.8824 15.6262 14.8824C15.0614 14.8824 14.6035 15.3403 14.6035 15.9051C14.6035 16.4699 15.0614 16.9278 15.6262 16.9278Z" fill="#ffffff"/>
<path d="M15.6262 13.3018C16.191 13.3018 16.6489 12.8439 16.6489 12.2791C16.6489 11.7142 16.191 11.2563 15.6262 11.2563C15.0614 11.2563 14.6035 11.7142 14.6035 12.2791C14.6035 12.8439 15.0614 13.3018 15.6262 13.3018Z" fill="#ffffff"/>
<path d="M14.6035 15.9051H16.6489V12.2791H14.6035V15.9051Z" fill="#ffffff"/>
<path d="M12.0001 10.0477C12.5649 10.0477 13.0228 9.58975 13.0228 9.02491C13.0228 8.46008 12.5649 8.0022 12.0001 8.0022C11.4353 8.0022 10.9774 8.46008 10.9774 9.02491C10.9774 9.58975 11.4353 10.0477 12.0001 10.0477Z" fill="#ffffff"/>
<path d="M12.0001 15.9981C12.5649 15.9981 13.0228 15.5402 13.0228 14.9753C13.0228 14.4105 12.5649 13.9526 12.0001 13.9526C11.4353 13.9526 10.9774 14.4105 10.9774 14.9753C10.9774 15.5402 11.4353 15.9981 12.0001 15.9981Z" fill="#ffffff"/>
</svg>
