<svg width="24" height="24" viewBox="0 0 24 24" fill="none" xmlns="http://www.w3.org/2000/svg">
<path d="M9.43934 21.4393C9.15804 21.158 9 20.7765 9 20.3787V18C9 17.1716 9.67157 16.5 10.5 16.5H13.5C14.3284 16.5 15 17.1716 15 18V20.3787C15 20.7765 14.842 21.158 14.5607 21.4393L13.9393 22.0607C13.658 22.342 13.2765 22.5 12.8787 22.5H11.1213C10.7235 22.5 10.342 22.342 10.0607 22.0607L9.43934 21.4393Z" fill="#ffffff"/>
<circle cx="12" cy="12" r="4.95" stroke="#ffffff" stroke-width="2.1"/>
<circle cx="15.75" cy="3" r="1.5" fill="#ffffff"/>
<circle cx="8.25" cy="3" r="1.5" fill="#ffffff"/>
<circle cx="3" cy="7.5" r="1.5" fill="#ffffff"/>
<circle cx="21" cy="7.5" r="1.5" fill="#ffffff"/>
</svg>
