<svg width="24" height="24" viewBox="0 0 24 24" fill="none" xmlns="http://www.w3.org/2000/svg">
<circle cx="12" cy="12" r="10.4" stroke="#ffffff" stroke-width="1.2"/>
<path d="M12.3709 9.77883H13.1719V16.94L13.4147 17.1908L14.3452 17.2556V18H10V17.2556L10.8982 17.1908L11.1328 16.94V11.2192H10.0405V10.5556L12.3709 9.77883ZM12.1929 6C12.5543 6 12.851 6.11598 13.0829 6.34794C13.3149 6.57451 13.4309 6.86312 13.4309 7.21376C13.4309 7.58058 13.3149 7.88267 13.0829 8.12003C12.8564 8.35199 12.5651 8.46797 12.209 8.46797C11.8638 8.46797 11.5752 8.35199 11.3432 8.12003C11.1113 7.88806 10.9953 7.59676 10.9953 7.24612C10.9953 6.89009 11.1086 6.59339 11.3351 6.35604C11.5671 6.11868 11.853 6 12.1929 6Z" fill="#ffffff"/>
</svg>
