<svg width="24" height="24" viewBox="0 0 24 24" fill="none" xmlns="http://www.w3.org/2000/svg">
<path fill-rule="evenodd" clip-rule="evenodd" d="M11.9996 3C9.55539 3 9.24888 3.01036 8.28897 3.0543C7.3312 3.09789 6.67709 3.25007 6.10443 3.47264C5.51248 3.70271 5.01056 4.0103 4.51042 4.51081C4.01028 5.01096 3.70234 5.51289 3.47263 6.1045C3.25007 6.67717 3.09788 7.33129 3.0543 8.28907C3.01036 9.249 3 9.55552 3 11.9998C3 14.4441 3.01036 14.7506 3.0543 15.7106C3.09788 16.6684 3.25007 17.3225 3.47263 17.8951C3.7027 18.4871 4.01028 18.989 4.51078 19.4892C5.01127 19.9897 5.51284 20.2973 6.10479 20.5274C6.67709 20.7499 7.33156 20.9021 8.28933 20.9457C9.24924 20.9896 9.55575 21 12 21C14.4443 21 14.7508 20.9896 15.7107 20.9457C16.6684 20.9021 17.3229 20.7499 17.8952 20.5274C18.4872 20.2973 18.9891 19.9897 19.4892 19.4892C19.9897 18.9887 20.2973 18.4871 20.5274 17.8951C20.7499 17.3228 20.9021 16.6684 20.9457 15.7106C20.9896 14.7506 21 14.4441 21 11.9998C21 9.55552 20.9896 9.249 20.9457 8.28907C20.9021 7.33129 20.7499 6.67681 20.5274 6.1045C20.2973 5.51253 19.9897 5.0106 19.4892 4.51045C18.9887 4.00994 18.4872 3.70235 17.8952 3.47228C17.3222 3.25007 16.6681 3.09789 15.7103 3.0543C14.7504 3.01036 14.4439 3 11.9996 3ZM18.2105 6.92853C18.2105 7.5581 17.7002 8.06846 17.0706 8.06846C16.441 8.06846 15.9307 7.5581 15.9307 6.92853C15.9307 6.29896 16.441 5.78859 17.0706 5.78859C17.7002 5.78859 18.2105 6.29896 18.2105 6.92853ZM7.12109 11.9998C7.12109 9.30591 9.30482 7.12181 11.9991 7.12181C14.6934 7.12181 16.8771 9.30591 16.8771 11.9998C16.8771 14.6938 14.693 16.8779 11.9991 16.8779C9.30519 16.8779 7.12109 14.6938 7.12109 11.9998ZM8.8327 11.9998C8.8327 13.7484 10.2502 15.1662 11.9991 15.1662C13.7481 15.1662 15.1655 13.7488 15.1655 11.9998C15.1655 10.2513 13.7477 8.83342 11.9991 8.83342C10.2506 8.83342 8.8327 10.2509 8.8327 11.9998Z" fill="#ffffff"/>
</svg>
