<svg width="24" height="24" viewBox="0 0 24 24" fill="none" xmlns="http://www.w3.org/2000/svg">
<path fill-rule="evenodd" clip-rule="evenodd" d="M12 1C18.0751 1 23 5.92487 23 12C23 18.0751 18.0751 23 12 23C5.92487 23 1 18.0751 1 12C1 5.92487 5.92487 1 12 1ZM12.7878 8.38783C13.1627 8.01293 13.7706 8.01293 14.1455 8.38784L17.0755 11.3179L17.0821 11.3245L17.7576 12L17.083 12.6746L17.0746 12.683L14.1455 15.6121C13.7706 15.987 13.1627 15.987 12.7878 15.6121C12.4129 15.2372 12.4129 14.6294 12.7878 14.2545L14.0823 12.96H7.60001C7.06982 12.96 6.64001 12.5302 6.64001 12C6.64001 11.4698 7.06982 11.04 7.60001 11.04H14.0823L12.7878 9.74548C12.4129 9.37057 12.4129 8.76273 12.7878 8.38783Z" fill="#ffffff"/>
</svg>
