<svg width="24" height="24" viewBox="0 0 24 24" fill="none" xmlns="http://www.w3.org/2000/svg">
<path fill-rule="evenodd" clip-rule="evenodd" d="M12 14.8485L7.57574 10.4243C7.34143 10.1899 7.34143 9.81005 7.57574 9.57573C7.81006 9.34142 8.18995 9.34142 8.42427 9.57573L12 13.1515L15.5757 9.57573C15.8101 9.34142 16.19 9.34142 16.4243 9.57573C16.6586 9.81005 16.6586 10.1899 16.4243 10.4243L12 14.8485Z" fill="#4650DF"/>
<path fill-rule="evenodd" clip-rule="evenodd" d="M12 2.2C6.58761 2.2 2.2 6.58761 2.2 12C2.2 17.4124 6.58761 21.8 12 21.8C17.4124 21.8 21.8 17.4124 21.8 12C21.8 6.58761 17.4124 2.2 12 2.2ZM12 1C5.92487 1 1 5.92487 1 12C1 18.0751 5.92487 23 12 23C18.0751 23 23 18.0751 23 12C23 5.92487 18.0751 1 12 1Z" fill="#4650DF"/>
</svg>
