<svg width="24" height="24" viewBox="0 0 24 24" fill="none" xmlns="http://www.w3.org/2000/svg">
<path fill-rule="evenodd" clip-rule="evenodd" d="M3 6C1.89543 6 0.999996 6.89543 0.999996 8V16C0.999996 17.1046 1.89543 18 3 18H4V20C4 21.1046 4.89543 22 6 22H18C19.1046 22 20 21.1046 20 20V18H21C22.1046 18 23 17.1046 23 16V8C23 6.89543 22.1046 6 21 6H19.118L19.1172 6H4.8828L4.88196 6H3ZM17.7984 3.76226C17.9389 4.14941 18.1035 4.60288 18.2844 5H5.71556C5.8965 4.60288 6.06107 4.14942 6.20157 3.76228L6.20157 3.76227L6.20157 3.76227L6.20157 3.76226C6.31953 3.43723 6.42052 3.15895 6.5 3C6.80643 2.38713 7.43283 2 8.11803 2H15.882C16.5672 2 17.1936 2.38713 17.5 3C17.5795 3.15895 17.6805 3.43723 17.7984 3.76226ZM18 13H6V19C6 19.5523 6.44772 20 7 20H17C17.5523 20 18 19.5523 18 19V13ZM19.5016 10.9C20.2748 10.9 20.9016 10.2732 20.9016 9.5C20.9016 8.7268 20.2748 8.1 19.5016 8.1C18.7284 8.1 18.1016 8.7268 18.1016 9.5C18.1016 10.2732 18.7284 10.9 19.5016 10.9Z" fill="#ffffff"/>
</svg>
