<svg width="24" height="24" viewBox="0 0 24 24" fill="none" xmlns="http://www.w3.org/2000/svg">
<circle cx="12" cy="12" r="10.4" stroke="#ffffff" stroke-width="1.2"/>
<path d="M10.9773 14.7273V14.6591C10.9848 13.9356 11.0606 13.3598 11.2045 12.9318C11.3485 12.5038 11.553 12.1572 11.8182 11.892C12.0833 11.6269 12.4015 11.3826 12.7727 11.1591C12.9962 11.0227 13.197 10.8617 13.375 10.6761C13.553 10.4867 13.6932 10.2689 13.7954 10.0227C13.9015 9.77651 13.9545 9.50379 13.9545 9.20454C13.9545 8.83333 13.8674 8.51136 13.6932 8.23864C13.5189 7.96591 13.286 7.75568 12.9943 7.60795C12.7026 7.46023 12.3788 7.38636 12.0227 7.38636C11.7121 7.38636 11.4129 7.45076 11.125 7.57954C10.8371 7.70833 10.5966 7.91098 10.4034 8.1875C10.2102 8.46401 10.0985 8.82576 10.0682 9.27273H8.63635C8.66666 8.62879 8.83332 8.07765 9.13635 7.61932C9.44317 7.16098 9.84658 6.8106 10.3466 6.56818C10.8504 6.32576 11.4091 6.20454 12.0227 6.20454C12.6894 6.20454 13.2689 6.33712 13.7614 6.60227C14.2576 6.86742 14.6401 7.23106 14.9091 7.69318C15.1818 8.1553 15.3182 8.68182 15.3182 9.27273C15.3182 9.68939 15.2538 10.0663 15.125 10.4034C15 10.7405 14.8182 11.0417 14.5795 11.3068C14.3447 11.572 14.0606 11.8068 13.7273 12.0114C13.3939 12.2197 13.1269 12.4394 12.9261 12.6705C12.7254 12.8977 12.5795 13.1686 12.4886 13.483C12.3977 13.7973 12.3485 14.1894 12.3409 14.6591V14.7273H10.9773ZM11.7045 18.0909C11.4242 18.0909 11.1837 17.9905 10.9829 17.7898C10.7822 17.589 10.6818 17.3485 10.6818 17.0682C10.6818 16.7879 10.7822 16.5473 10.9829 16.3466C11.1837 16.1458 11.4242 16.0455 11.7045 16.0455C11.9848 16.0455 12.2254 16.1458 12.4261 16.3466C12.6269 16.5473 12.7273 16.7879 12.7273 17.0682C12.7273 17.2538 12.6799 17.4242 12.5852 17.5795C12.4943 17.7348 12.3712 17.8598 12.2159 17.9545C12.0644 18.0455 11.8939 18.0909 11.7045 18.0909Z" fill="#ffffff"/>
</svg>
