<svg width="24" height="24" viewBox="0 0 24 24" fill="none" xmlns="http://www.w3.org/2000/svg">
<path d="M17.5909 16.9091C17.5909 16.6364 17.4545 16.3636 17.1818 16.0909C15.1364 14.8636 12.8182 14.3182 10.2273 14.3182C8.86364 14.3182 7.36364 14.4545 5.72727 14.8636C5.31818 15 5.04545 15.2727 5.04545 15.6818C5.04545 15.9545 5.18182 16.0909 5.31818 16.2273C5.45455 16.3636 5.59091 16.5 5.86364 16.5C5.86364 16.5 6.13636 16.5 6.40909 16.3636C7.77273 16.0909 9 15.9546 10.2273 15.9546C12.5455 15.9546 14.5909 16.5 16.3636 17.5909C16.5 17.7273 16.7727 17.7273 16.9091 17.7273C17.0455 17.7273 17.3182 17.5909 17.4545 17.4546C17.5909 17.3182 17.5909 17.0455 17.5909 16.9091ZM19.0909 13.5C19.0909 13.0909 18.9545 12.6818 18.5455 12.5455C16.0909 11.0455 13.2273 10.3636 9.95455 10.3636C8.31818 10.3636 6.81818 10.6364 5.18182 11.0455C4.63636 11.1818 4.5 11.4546 4.5 12C4.5 12.2727 4.63636 12.5455 4.77273 12.6818C4.90909 12.8182 5.18182 12.9545 5.45455 12.9545C5.59091 12.9545 5.72727 12.9545 6 12.8182C7.22727 12.4091 8.59091 12.2727 9.95455 12.2727C12.8182 12.2727 15.4091 12.9545 17.5909 14.1818C17.8636 14.3182 18 14.3182 18.1364 14.3182C18.4091 14.3182 18.6818 14.1818 18.8182 14.0455C18.9545 14.0455 19.0909 13.7727 19.0909 13.5ZM20.7273 9.68182C20.7273 9.27273 20.4545 8.86364 20.0455 8.59091C18.6818 7.77273 17.1818 7.22727 15.4091 6.81818C13.6364 6.40909 11.8636 6.27273 10.0909 6.27273C7.90909 6.27273 6.13636 6.54545 4.36364 6.95454C4.09091 7.09091 3.95455 7.22728 3.81818 7.36364C3.68182 7.5 3.54545 7.77273 3.54545 8.18182C3.54545 8.45455 3.68182 8.72727 3.81818 9C4.09091 9.27273 4.36364 9.27273 4.63636 9.27273C4.77273 9.27273 4.90909 9.27273 5.31818 9.13637C6.68182 8.72728 8.31818 8.59091 10.0909 8.59091C11.7273 8.59091 13.3636 8.72728 14.8636 9.13637C16.3636 9.54546 17.7273 9.95455 18.8182 10.6364C18.9545 10.7727 19.2273 10.7727 19.5 10.7727C19.7727 10.7727 20.0455 10.6364 20.3182 10.5C20.7273 10.2273 20.8636 9.95454 20.7273 9.68182ZM24 12C24 14.1818 23.4545 16.2273 22.3636 18C21.2727 19.7727 19.7727 21.2727 18 22.3636C16.2273 23.4545 14.0455 24 12 24C9.81818 24 7.77273 23.4545 6 22.3636C4.22727 21.2727 2.72727 19.7727 1.63636 18C0.545455 16.2273 0 14.0455 0 12C0 9.81819 0.545455 7.77273 1.63636 6C2.72727 4.22728 4.22727 2.72728 6 1.63637C7.77273 0.545461 9.95455 0 12 0C14.1818 0 16.2273 0.545461 18 1.63637C19.7727 2.72728 21.2727 4.22728 22.3636 6C23.4545 7.77273 24 9.81819 24 12Z" fill="#ffffff"/>
</svg>
