<svg width="24" height="24" viewBox="0 0 24 24" fill="none" xmlns="http://www.w3.org/2000/svg">
<path fill-rule="evenodd" clip-rule="evenodd" d="M12 1C18.0751 1 23 5.92487 23 12C23 18.0751 18.0751 23 12 23C5.92487 23 1 18.0751 1 12C1 5.92487 5.92487 1 12 1ZM16.8951 8.85811C17.2482 8.36376 17.1337 7.67675 16.6394 7.32364C16.145 6.97053 15.458 7.08503 15.1049 7.57939L11.1721 13.0853L9.27782 11.1909C8.84824 10.7614 8.15176 10.7614 7.72218 11.1909C7.29261 11.6205 7.29261 12.317 7.72218 12.7466L10.5347 15.5591L11.4529 16.4773L12.2076 15.4206L16.8951 8.85811Z" fill="#ffffff"/>
</svg>
