<svg width="24" height="24" viewBox="0 0 24 24" fill="none" xmlns="http://www.w3.org/2000/svg">
<path d="M19.9973 10.2825C19.8446 10.2968 19.6912 10.3043 19.5377 10.3049C18.7089 10.305 17.8931 10.1065 17.1639 9.7271C16.4348 9.34775 15.8153 8.79957 15.3613 8.13204V15.5312C15.3613 16.6129 15.0281 17.6702 14.4039 18.5695C13.7797 19.4689 12.8925 20.1698 11.8545 20.5837C10.8165 20.9976 9.67434 21.1059 8.57241 20.8949C7.47047 20.6839 6.45828 20.1631 5.66382 19.3982C4.86937 18.6334 4.32834 17.659 4.10915 16.5981C3.88997 15.5373 4.00246 14.4377 4.43242 13.4384C4.86237 12.4392 5.59047 11.5851 6.52465 10.9841C7.45883 10.3832 8.55712 10.0625 9.68065 10.0625C9.79923 10.0625 9.91515 10.0728 10.0317 10.0798V12.7747C9.91515 12.7613 9.80056 12.7408 9.68065 12.7408C8.91171 12.7408 8.17426 13.0348 7.63054 13.5583C7.08682 14.0817 6.78136 14.7916 6.78136 15.5319C6.78136 16.2721 7.08682 16.9821 7.63054 17.5055C8.17426 18.029 8.91171 18.323 9.68065 18.323C11.2822 18.323 12.6965 17.1083 12.6965 15.5665L12.7245 3H15.4026C15.525 4.12023 16.0524 5.16341 16.8928 5.94714C17.7332 6.73087 18.8331 7.20527 20 7.28739V10.2825" fill="#ffffff"/>
</svg>
