<svg width="24" height="24" viewBox="0 0 24 24" fill="none" xmlns="http://www.w3.org/2000/svg">
<path d="M8.896 19.28C15.992 19.28 19.872 13.4 19.872 8.304C19.872 8.136 19.872 7.968 19.864 7.808C20.616 7.264 21.272 6.584 21.792 5.808C21.104 6.112 20.36 6.32 19.576 6.416C20.376 5.936 20.984 5.184 21.272 4.28C20.528 4.72 19.704 5.04 18.824 5.216C18.12 4.464 17.12 4 16.008 4C13.88 4 12.152 5.728 12.152 7.856C12.152 8.16 12.184 8.456 12.256 8.736C9.048 8.576 6.208 7.04 4.304 4.704C3.976 5.272 3.784 5.936 3.784 6.64C3.784 7.976 4.464 9.16 5.504 9.848C4.872 9.832 4.28 9.656 3.76 9.368C3.76 9.384 3.76 9.4 3.76 9.416C3.76 11.288 5.088 12.84 6.856 13.2C6.536 13.288 6.192 13.336 5.84 13.336C5.592 13.336 5.352 13.312 5.112 13.264C5.6 14.8 7.024 15.912 8.712 15.944C7.392 16.976 5.728 17.592 3.92 17.592C3.608 17.592 3.304 17.576 3 17.536C4.688 18.64 6.72 19.28 8.896 19.28Z" fill="#ffffff"/>
</svg>
