<svg width="24" height="24" viewBox="0 0 24 24" fill="none" xmlns="http://www.w3.org/2000/svg">
<path d="M21.814 11.9019C21.8553 11.9649 21.8553 12.0351 21.814 12.0981C20.7386 13.7393 17.4499 17.9125 12 17.9125C6.55011 17.9125 3.26142 13.7393 2.18597 12.0981C2.14468 12.0351 2.14468 11.9649 2.18597 11.9019C3.26142 10.2607 6.55011 6.0875 12 6.0875C17.4499 6.0875 20.7386 10.2607 21.814 11.9019Z" stroke="#ffffff" stroke-width="1.925"/>
<path d="M15.2241 12.7721C15.3933 12.0657 15.3258 11.3232 15.032 10.6588C14.7381 9.9945 14.2341 9.44508 13.5975 9.0951C12.961 8.74511 12.227 8.61393 11.5086 8.72174C10.7902 8.82955 10.1272 9.17037 9.62134 9.69179C9.11554 10.2132 8.79502 10.8863 8.7091 11.6077C8.62317 12.329 8.77659 13.0586 9.14576 13.6843C9.51493 14.3099 10.0794 14.797 10.7524 15.0705C11.4254 15.3441 12.1696 15.389 12.8705 15.1983L12.0006 11.9998L15.2241 12.7721Z" fill="#ffffff"/>
</svg>
