<svg width="24" height="24" viewBox="0 0 24 24" fill="none" xmlns="http://www.w3.org/2000/svg">
<path fill-rule="evenodd" clip-rule="evenodd" d="M22.0002 11.8934C22.0002 17.3596 17.5247 21.7868 12.0094 21.7868C10.3573 21.7868 8.78662 21.3797 7.39409 20.6622C7.25159 20.5887 7.08587 20.5724 6.93335 20.6217L2.76392 21.9707C2.30715 22.1185 1.87737 21.6821 2.03218 21.2276L3.3775 17.2785C3.43316 17.1151 3.41273 16.936 3.32738 16.786C2.5085 15.3465 2.04129 13.6718 2.04129 11.916C2.01869 6.42717 6.49418 2 12.0094 2C17.5247 2 22.0002 6.42717 22.0002 11.8934ZM16.6864 13.7672C16.8401 13.8482 16.942 13.9019 16.992 13.9686C17.0564 14.0758 17.0564 14.5259 16.8848 15.0403C16.6917 15.5762 15.7479 16.0907 15.3189 16.1335C15.247 16.1407 15.1871 16.1551 15.1262 16.1698C14.8236 16.2427 14.4943 16.322 12.5304 15.5548C10.3084 14.6868 8.84727 12.5071 8.59494 12.1307C8.57932 12.1074 8.56834 12.091 8.56209 12.0823C8.55707 12.0753 8.55045 12.0662 8.54239 12.0551C8.37834 11.8298 7.61828 10.7859 7.61828 9.70298C7.61828 8.64605 8.13813 8.09005 8.38328 7.82785C8.40163 7.80822 8.41844 7.79024 8.43339 7.77382C8.64789 7.55946 8.90529 7.49516 9.05544 7.49516C9.13341 7.49516 9.21716 7.50094 9.29769 7.50649C9.37224 7.51164 9.44403 7.51659 9.5059 7.51659C9.51956 7.51659 9.53394 7.51587 9.54896 7.51511C9.67557 7.50874 9.84814 7.50005 10.0207 7.90243C10.0726 8.0291 10.143 8.20373 10.2195 8.39349C10.4279 8.91011 10.6815 9.53886 10.7286 9.61724C10.7929 9.74585 10.8358 9.87446 10.75 10.0245C10.7265 10.0656 10.7062 10.1035 10.687 10.1395C10.6359 10.2349 10.5919 10.317 10.5141 10.4103C10.4818 10.449 10.4476 10.4916 10.4127 10.5351C10.3313 10.6363 10.2459 10.7427 10.1709 10.8176C10.0422 10.9248 9.9349 11.0534 10.0636 11.2892C10.1923 11.5035 10.6642 12.2752 11.3506 12.8754C12.1201 13.5505 12.791 13.8319 13.1049 13.9635C13.1497 13.9823 13.1873 13.998 13.2168 14.0115C13.4313 14.1186 13.5814 14.0972 13.7101 13.9471C13.7241 13.9309 13.7419 13.9103 13.7626 13.8863C13.933 13.6888 14.3056 13.2571 14.4395 13.0469C14.5896 12.8325 14.7398 12.854 14.9543 12.9397C15.0882 12.9932 15.5815 13.2305 15.9908 13.4274C16.2371 13.5458 16.4529 13.6497 16.5416 13.6899C16.5941 13.7185 16.6424 13.744 16.6864 13.7672Z" fill="#ffffff"/>
</svg>
