<svg width="24" height="24" viewBox="0 0 24 24" fill="none" xmlns="http://www.w3.org/2000/svg">
<path d="M17.6774 2C17.2461 2 17.0599 2.27125 16.9049 2.54875L10.4861 13.9312L14.5849 21.45C14.7274 21.705 14.9486 22 15.3899 22H18.2711C18.4449 22 18.5811 21.935 18.6549 21.815C18.7311 21.6912 18.7286 21.5287 18.6486 21.3687L14.5824 13.94C14.5786 13.9338 14.5786 13.9262 14.5824 13.9212L20.9699 2.62875C21.0499 2.47 21.0511 2.3075 20.9749 2.18375C20.9011 2.065 20.7649 2 20.5911 2H17.6774Z" fill="#ffffff"/>
<path d="M5.55112 5.65C5.37737 5.65 5.24112 5.71625 5.16737 5.835C5.09112 5.95875 5.09362 6.12 5.17362 6.28125L7.13362 9.6475C7.1355 9.65049 7.13651 9.65396 7.13651 9.6575C7.13651 9.66104 7.1355 9.66451 7.13362 9.6675L4.06112 15.08C3.98112 15.24 3.97987 15.4025 4.05612 15.525C4.12987 15.6437 4.26612 15.7087 4.43862 15.7087H7.33112C7.76237 15.7087 7.95612 15.425 8.10362 15.1588L11.2286 9.65625L9.23737 6.2C9.09362 5.94375 8.87362 5.65 8.43112 5.65H5.54987H5.55112Z" fill="#ffffff"/>
</svg>
