<svg width="24" height="24" viewBox="0 0 24 24" fill="none" xmlns="http://www.w3.org/2000/svg">
<path fill-rule="evenodd" clip-rule="evenodd" d="M19.8033 5.41129C20.6667 5.64246 21.3397 6.32314 21.5683 7.18361C21.9873 8.75045 22 11.9997 22 11.9997C22 11.9997 22 15.2618 21.581 16.8158C21.3524 17.6763 20.5524 18.3826 19.689 18.6138C18.1272 19.0248 11.9941 18.9991 11.9941 18.9991C11.9941 18.9991 5.86104 19.0376 4.29921 18.6138C3.44846 18.3826 2.6104 17.6763 2.38184 16.8158C1.96281 15.249 2.0009 11.9997 2.0009 11.9997C2.0009 11.9997 1.96281 8.75045 2.38184 7.18361C2.6104 6.32314 3.43576 5.61678 4.29921 5.3856C5.86104 4.97463 11.9941 5.00032 11.9941 5.00032C11.9941 5.00032 18.2414 5.00032 19.8033 5.41129ZM15.067 11.9997L10.0768 15.1077V8.89172L15.067 11.9997Z" fill="#ffffff"/>
</svg>
